HIERARCHY
ROOT Hips
{
	OFFSET 0.0136489431 85.5290222 -2.13670418
	CHANNELS 6 Xposition Yposition Zposition Zrotation Yrotation Xrotation 
	JOINT Spine
	{
		OFFSET 2.30099286e-05 8.81424618 -2.08003235
		CHANNELS 3 Zrotation Yrotation Xrotation 
		JOINT Spine1
		{
			OFFSET 8.7261958e-07 8.84414387 -2.72457055e-06
			CHANNELS 3 Zrotation Yrotation Xrotation 
			JOINT Spine2
			{
				OFFSET -2.55740429e-06 11.682272 4.31642138e-06
				CHANNELS 3 Zrotation Yrotation Xrotation 
				JOINT Spine3
				{
					OFFSET 6.59586306e-07 11.7466984 -3.93247592e-06
					CHANNELS 3 Zrotation Yrotation Xrotation 
					JOINT Neck
					{
						OFFSET 8.48960008e-06 17.6582756 -8.42700974e-05
						CHANNELS 3 Zrotation Yrotation Xrotation 
						JOINT Neck1
						{
							OFFSET 3.79443094e-07 5.10151863 3.26421036e-06
							CHANNELS 3 Zrotation Yrotation Xrotation 
							JOINT Head
							{
								OFFSET -9.47953868e-06 5.10151625 8.86555881e-06
								CHANNELS 3 Zrotation Yrotation Xrotation 
								JOINT HeadEnd
								{
									OFFSET -4.13024277e-16 11.6550846 5.50596564e-14
									CHANNELS 3 Zrotation Yrotation Xrotation 
									End Site
									{
										OFFSET 0 0 0
									}
								}
							}
						}
					}
				}
				JOINT RightShoulder
				{
					OFFSET -2.62538743 11.1752224 -4.81263169e-06
					CHANNELS 3 Zrotation Yrotation Xrotation 
					JOINT RightArm
					{
						OFFSET -1.50603675e-06 10.4347115 1.24267818e-05
						CHANNELS 3 Zrotation Yrotation Xrotation 
						JOINT RightForeArm
						{
							OFFSET 0.069977134 25.8717893 -0.536955001
							CHANNELS 3 Zrotation Yrotation Xrotation 
							JOINT RightHand
							{
								OFFSET 0.298976964 24.8929021 -0.0338061789
								CHANNELS 3 Zrotation Yrotation Xrotation 
								JOINT RightHandThumb1
								{
									OFFSET -2.86730862 3.95956302 2.94429946
									CHANNELS 3 Zrotation Yrotation Xrotation 
									JOINT RightHandThumb2
									{
										OFFSET 5.44471726e-06 3.35039091 -6.88177021e-07
										CHANNELS 3 Zrotation Yrotation Xrotation 
										JOINT RightHandThumb3
										{
											OFFSET -5.18119812e-06 3.75651813 3.88906735e-06
											CHANNELS 3 Zrotation Yrotation Xrotation 
											JOINT RightHandThumb4
											{
												OFFSET -4.83070982e-07 3.1473465 -1.11636681e-06
												CHANNELS 3 Zrotation Yrotation Xrotation 
												End Site
												{
													OFFSET 0 0 0
												}
											}
										}
									}
								}
							}
							JOINT RightHandIndex1
							{
								OFFSET -0.0867566392 10.030899 2.34528232
								CHANNELS 3 Zrotation Yrotation Xrotation 
								JOINT RightHandIndex2
								{
									OFFSET -3.76662116e-06 4.06108809 3.41322158e-06
									CHANNELS 3 Zrotation Yrotation Xrotation 
									JOINT RightHandIndex3
									{
										OFFSET 2.12695065e-06 3.2488718 -2.91990217e-06
										CHANNELS 3 Zrotation Yrotation Xrotation 
										JOINT RightHandIndex4
										{
											OFFSET 1.19115619e-07 2.6397078 2.31537559e-06
											CHANNELS 3 Zrotation Yrotation Xrotation 
											End Site
											{
												OFFSET 0 0 0
											}
										}
									}
								}
							}
						}
						JOINT RightHandMiddle1
						{
							OFFSET 0.104109198 9.50295544 0.00677696662
							CHANNELS 3 Zrotation Yrotation Xrotation 
							JOINT RightHandMiddle2
							{
								OFFSET -4.00518747e-07 4.56873274 5.93760964e-06
								CHANNELS 3 Zrotation Yrotation Xrotation 
								JOINT RightHandMiddle3
								{
									OFFSET 7.54751455e-06 3.6549809 -3.29262286e-06
									CHANNELS 3 Zrotation Yrotation Xrotation 
									JOINT RightHandMiddle4
									{
										OFFSET -2.47242271e-06 2.74122977 5.72284435e-06
										CHANNELS 3 Zrotation Yrotation Xrotation 
										End Site
										{
											OFFSET 0 0 0
										}
									}
								}
							}
						}
					}
					JOINT RightHandRing1
					{
						OFFSET 0.0867536962 8.92171097 -2.26744866
						CHANNELS 3 Zrotation Yrotation Xrotation 
						JOINT RightHandRing2
						{
							OFFSET -8.49416485e-06 4.06109715 8.33849263e-08
							CHANNELS 3 Zrotation Yrotation Xrotation 
							JOINT RightHandRing3
							{
								OFFSET -2.69741424e-07 3.65497613 8.05873964e-06
								CHANNELS 3 Zrotation Yrotation Xrotation 
								JOINT RightHandRing4
								{
									OFFSET -1.75682811e-07 2.74124503 -6.02012545e-07
									CHANNELS 3 Zrotation Yrotation Xrotation 
									End Site
									{
										OFFSET 0 0 0
									}
								}
							}
						}
					}
				}
				JOINT RightHandPinky1
				{
					OFFSET -0.173490137 7.97699213 -4.46720457
					CHANNELS 3 Zrotation Yrotation Xrotation 
					JOINT RightHandPinky2
					{
						OFFSET -5.09637176e-06 3.35040545 -1.14142521e-05
						CHANNELS 3 Zrotation Yrotation Xrotation 
						JOINT RightHandPinky3
						{
							OFFSET -2.41064345e-06 2.84276104 3.31119791e-07
							CHANNELS 3 Zrotation Yrotation Xrotation 
							JOINT RightHandPinky4
							{
								OFFSET -4.84227395e-06 2.63970661 4.19883692e-06
								CHANNELS 3 Zrotation Yrotation Xrotation 
								End Site
								{
									OFFSET 0 0 0
								}
							}
						}
					}
				}
			}
			JOINT RightForeArmEnd
			{
				OFFSET -2.56183113e-14 -1.74232385e-16 -6.35784429e-17
				CHANNELS 3 Zrotation Yrotation Xrotation 
				End Site
				{
					OFFSET 0 0 0
				}
			}
		}
	}
	JOINT RightArmEnd
	{
		OFFSET -6.99860395e-14 1.22731819e-14 -1.81852944e-16
		CHANNELS 3 Zrotation Yrotation Xrotation 
		End Site
		{
			OFFSET 0 0 0
		}
	}
}
MOTION
Frames: 23
Frame Time: 0.033333
-209.440409 86.2836357 48.0461159 -16.0148432 -3.52850293 12.407703 -3.82914109 -7.0329878 9.08123388 -8.35295909 -6.17615832 4.50529679 -14.769707 -5.39031912 -1.96585876 7.59021927 13.5681651 -11.0024016 0 0 0 0 0 0 0 0 0 0 0 0 -34.228554 -11.147268 10.9764452 -28.7330678 -9.41913817 -2.28133519 -4.86546628 -11.6403969 -30.6667261 23.5764435 -13.8273227 -50.9738706 0 0 0 0 0 0 0 0 0 0 0 0 0 0 0 0 0 0 0 0 0 0 0 0 0 0 0 0 0 0 0 0 0 0 0 0 0 0 0 0 0 0 0 0 0 0 0 0 0 0 0 0 0 0 0 0 0 0 0 0 0 0 0 0 0 0 
-209.365297 86.458604 47.9989635 -16.1154474 -3.582937 12.3835013 -3.76008129 -7.04363447 9.03093083 -8.27890745 -6.18170008 4.46524229 -14.6930399 -5.39767603 -1.99488394 7.66234696 13.5997017 -11.027311 0 0 0 0 0 0 0 0 0 0 0 0 -34.2362094 -11.1740026 11.0056223 -28.7416926 -9.43031311 -2.24364527 -4.88357831 -11.6482793 -30.6305614 23.5485878 -13.8370361 -50.9450196 0 0 0 0 0 0 0 0 0 0 0 0 0 0 0 0 0 0 0 0 0 0 0 0 0 0 0 0 0 0 0 0 0 0 0 0 0 0 0 0 0 0 0 0 0 0 0 0 0 0 0 0 0 0 0 0 0 0 0 0 0 0 0 0 0 0 
-209.294032 86.6227672 47.961567 -16.216226 -3.64080095 12.3611615 -3.69216792 -7.0570258 8.97937057 -8.20548552 -6.19032193 4.42414325 -14.6167772 -5.40837215 -2.02430009 7.73469413 13.6310089 -11.052854 0 0 0 0 0 0 0 0 0 0 0 0 -34.2451848 -11.2032016 11.0366093 -28.7515658 -9.44311395 -2.20334546 -4.90351057 -11.6575403 -30.5920227 23.5180986 -13.8477309 -50.9145544 0 0 0 0 0 0 0 0 0 0 0 0 0 0 0 0 0 0 0 0 0 0 0 0 0 0 0 0 0 0 0 0 0 0 0 0 0 0 0 0 0 0 0 0 0 0 0 0 0 0 0 0 0 0 0 0 0 0 0 0 0 0 0 0 0 0 
-209.227243 86.774265 47.9353439 -16.3165475 -3.70122954 12.3404019 -3.62491039 -7.07221514 8.92620892 -8.13231092 -6.20106213 4.38156162 -14.5405492 -5.42155187 -2.05475405 7.80709396 13.662139 -11.0786681 0 0 0 0 0 0 0 0 0 0 0 0 -34.2545908 -11.234788 11.0681756 -28.7616694 -9.45783686 -2.16149423 -4.9240964 -11.6685893 -30.551989 23.4859857 -13.8600032 -50.8834756 0 0 0 0 0 0 0 0 0 0 0 0 0 0 0 0 0 0 0 0 0 0 0 0 0 0 0 0 0 0 0 0 0 0 0 0 0 0 0 0 0 0 0 0 0 0 0 0 0 0 0 0 0 0 0 0 0 0 0 0 0 0 0 0 0 0 
-209.171385 86.9107514 47.9062156 -16.4154703 -3.76145338 12.3214967 -3.55806248 -7.08684419 8.87189494 -8.05953503 -6.21150144 4.33766899 -14.4646609 -5.43484013 -2.08666319 7.87961017 13.6934858 -11.104205 0 0 0 0 0 0 0 0 0 0 0 0 -34.2642334 -11.2676599 11.0984752 -28.7716677 -9.47435462 -2.12021175 -4.94454398 -11.6814797 -30.5124665 23.4533567 -13.8735681 -50.8536009 0 0 0 0 0 0 0 0 0 0 0 0 0 0 0 0 0 0 0 0 0 0 0 0 0 0 0 0 0 0 0 0 0 0 0 0 0 0 0 0 0 0 0 0 0 0 0 0 0 0 0 0 0 0 0 0 0 0 0 0 0 0 0 0 0 0 
-209.12684 87.0327992 47.8732639 -16.5130596 -3.8205391 12.3047798 -3.49193144 -7.10011399 8.8168127 -7.98759963 -6.22085286 4.29271189 -14.3895998 -5.4474546 -2.12001421 7.9519501 13.7250929 -11.1290711 0 0 0 0 0 0 0 0 0 0 0 0 -34.2740288 -11.3014582 11.1267702 -28.7814119 -9.49268587 -2.08030685 -4.9645475 -11.6963005 -30.4742161 23.4205991 -13.8883694 -50.8256602 0 0 0 0 0 0 0 0 0 0 0 0 0 0 0 0 0 0 0 0 0 0 0 0 0 0 0 0 0 0 0 0 0 0 0 0 0 0 0 0 0 0 0 0 0 0 0 0 0 0 0 0 0 0 0 0 0 0 0 0 0 0 0 0 0 0 
-209.091424 87.1389107 47.8440157 -16.6103988 -3.8786122 12.290988 -3.42757129 -7.11212683 8.76180854 -7.91757447 -6.2292745 4.2474304 -14.3164407 -5.45946915 -2.15414908 8.02327458 13.7568338 -11.1529087 0 0 0 0 0 0 0 0 0 0 0 0 -34.2841149 -11.3360448 11.1531947 -28.7910656 -9.51268249 -2.04173485 -4.98428234 -11.7128979 -30.4372312 23.3876135 -13.9041846 -50.7996172 0 0 0 0 0 0 0 0 0 0 0 0 0 0 0 0 0 0 0 0 0 0 0 0 0 0 0 0 0 0 0 0 0 0 0 0 0 0 0 0 0 0 0 0 0 0 0 0 0 0 0 0 0 0 0 0 0 0 0 0 0 0 0 0 0 0 
-209.059903 87.2294671 47.8092056 -16.706865 -3.93332974 12.2797077 -3.3648869 -7.12087581 8.70711403 -7.84967116 -6.23474405 4.20184137 -14.2455033 -5.4689267 -2.18950679 8.09365834 13.7892117 -11.1758983 0 0 0 0 0 0 0 0 0 0 0 0 -34.2946598 -11.3702698 11.1767475 -28.8007802 -9.5338617 -2.00591163 -5.0035889 -11.7309025 -30.4029054 23.3549727 -13.9203027 -50.7765528 0 0 0 0 0 0 0 0 0 0 0 0 0 0 0 0 0 0 0 0 0 0 0 0 0 0 0 0 0 0 0 0 0 0 0 0 0 0 0 0 0 0 0 0 0 0 0 0 0 0 0 0 0 0 0 0 0 0 0 0 0 0 0 0 0 0 
-209.028887 87.3048573 47.768442 -16.8022458 -3.98450743 12.2714136 -3.30382814 -7.12631699 8.65358319 -7.78394108 -6.23708901 4.15680947 -14.1769309 -5.47544519 -2.22527618 8.16333073 13.8224677 -11.1979058 0 0 0 0 0 0 0 0 0 0 0 0 -34.3060922 -11.4036223 11.1979539 -28.8111004 -9.55564086 -1.97264356 -5.02299385 -11.7497063 -30.3711655 23.322468 -13.9360022 -50.7561545 0 0 0 0 0 0 0 0 0 0 0 0 0 0 0 0 0 0 0 0 0 0 0 0 0 0 0 0 0 0 0 0 0 0 0 0 0 0 0 0 0 0 0 0 0 0 0 0 0 0 0 0 0 0 0 0 0 0 0 0 0 0 0 0 0 0 
-208.996791 87.3633921 47.7275636 -16.8967384 -4.03352988 12.2676223 -3.24448836 -7.12987778 8.60299432 -7.72047304 -6.23748296 4.1142746 -14.1109322 -5.47969604 -2.25930862 8.23255922 13.8567216 -11.218482 0 0 0 0 0 0 0 0 0 0 0 0 -34.3191775 -11.4358502 11.2187238 -28.8230551 -9.57709321 -1.94043389 -5.04371336 -11.768241 -30.3407924 23.2892719 -13.9502553 -50.7369183 0 0 0 0 0 0 0 0 0 0 0 0 0 0 0 0 0 0 0 0 0 0 0 0 0 0 0 0 0 0 0 0 0 0 0 0 0 0 0 0 0 0 0 0 0 0 0 0 0 0 0 0 0 0 0 0 0 0 0 0 0 0 0 0 0 0 
-208.962961 87.4016113 47.6858448 -16.9906437 -4.08180671 12.2673864 -3.18683847 -7.13337986 8.55487055 -7.65893427 -6.23777447 4.07398401 -14.0470564 -5.48350509 -2.29139883 8.30109361 13.8919092 -11.2378661 0 0 0 0 0 0 0 0 0 0 0 0 -34.3336058 -11.4681524 11.2404362 -28.8364072 -9.59851972 -1.90748615 -5.06589123 -11.7866614 -30.3099772 23.2548193 -13.963788 -50.7172719 0 0 0 0 0 0 0 0 0 0 0 0 0 0 0 0 0 0 0 0 0 0 0 0 0 0 0 0 0 0 0 0 0 0 0 0 0 0 0 0 0 0 0 0 0 0 0 0 0 0 0 0 0 0 0 0 0 0 0 0 0 0 0 0 0 0 
-208.92912 87.4117886 47.6438726 -17.0848678 -4.12946164 12.2702287 -3.1317496 -7.13740137 8.50875793 -7.6000256 -6.23873575 4.03545278 -13.9858842 -5.48780944 -2.3219147 8.36830535 13.9276983 -11.2561818 0 0 0 0 0 0 0 0 0 0 0 0 -34.3493692 -11.5012062 11.2631101 -28.8510527 -9.62049727 -1.87346871 -5.0894899 -11.8055169 -30.27834 23.2188647 -13.9771899 -50.6970888 0 0 0 0 0 0 0 0 0 0 0 0 0 0 0 0 0 0 0 0 0 0 0 0 0 0 0 0 0 0 0 0 0 0 0 0 0 0 0 0 0 0 0 0 0 0 0 0 0 0 0 0 0 0 0 0 0 0 0 0 0 0 0 0 0 0 
-208.901411 87.3834979 47.6044518 -17.1809223 -4.17537124 12.2761969 -3.08096158 -7.14130208 8.46438969 -7.54546201 -6.24005699 3.99813626 -13.9290214 -5.49260441 -2.35162759 8.43311189 13.9634161 -11.2734049 0 0 0 0 0 0 0 0 0 0 0 0 -34.3666703 -11.5349982 11.2854386 -28.8669574 -9.64369476 -1.83955797 -5.11420554 -11.8255749 -30.24698 23.1816443 -13.9908033 -50.6776738 0 0 0 0 0 0 0 0 0 0 0 0 0 0 0 0 0 0 0 0 0 0 0 0 0 0 0 0 0 0 0 0 0 0 0 0 0 0 0 0 0 0 0 0 0 0 0 0 0 0 0 0 0 0 0 0 0 0 0 0 0 0 0 0 0 0 
-208.880552 87.3099086 47.5704167 -17.2786932 -4.21376017 12.2837631 -3.03525815 -7.13915142 8.41899067 -7.49648349 -6.23639954 3.9584903 -13.8775905 -5.49366155 -2.38529149 8.49530842 13.9981732 -11.2898988 0 0 0 0 0 0 0 0 0 0 0 0 -34.384947 -11.567774 11.3005852 -28.8827417 -9.66970638 -1.81252496 -5.13730421 -11.8490211 -30.2220897 23.1459987 -14.005518 -50.6653737 0 0 0 0 0 0 0 0 0 0 0 0 0 0 0 0 0 0 0 0 0 0 0 0 0 0 0 0 0 0 0 0 0 0 0 0 0 0 0 0 0 0 0 0 0 0 0 0 0 0 0 0 0 0 0 0 0 0 0 0 0 0 0 0 0 0 
-208.871542 87.1894152 47.5411041 -17.3776143 -4.23917708 12.2919035 -2.99535222 -7.12548675 8.37120649 -7.45435796 -6.22267883 3.91445615 -13.8328827 -5.48663615 -2.42615731 8.5548436 14.0315293 -11.3049584 0 0 0 0 0 0 0 0 0 0 0 0 -34.4038384 -11.5978948 11.3024108 -28.8973336 -9.69995321 -1.79849735 -5.1565379 -11.877817 -30.2093314 23.1142791 -14.0219794 -50.6660008 0 0 0 0 0 0 0 0 0 0 0 0 0 0 0 0 0 0 0 0 0 0 0 0 0 0 0 0 0 0 0 0 0 0 0 0 0 0 0 0 0 0 0 0 0 0 0 0 0 0 0 0 0 0 0 0 0 0 0 0 0 0 0 0 0 0 
-208.881207 87.0280446 47.514671 -17.4764697 -4.24667164 12.3000774 -2.9615877 -7.09541195 8.32123868 -7.42009867 -6.19410086 3.86563799 -13.7961016 -5.4670385 -2.47576467 8.61191053 14.0635875 -11.3168553 0 0 0 0 0 0 0 0 0 0 0 0 -34.4230916 -11.6237264 11.2857637 -28.9099384 -9.73542281 -1.80275076 -5.17015938 -11.9134212 -30.2136549 23.088395 -14.0404259 -50.6845702 0 0 0 0 0 0 0 0 0 0 0 0 0 0 0 0 0 0 0 0 0 0 0 0 0 0 0 0 0 0 0 0 0 0 0 0 0 0 0 0 0 0 0 0 0 0 0 0 0 0 0 0 0 0 0 0 0 0 0 0 0 0 0 0 0 0 
-208.900456 86.8453384 47.49893 -17.574193 -4.24327856 12.3095907 -2.93158137 -7.05529779 8.2720911 -7.3908727 -6.15614909 3.81603669 -13.7645786 -5.43897763 -2.52872936 8.66649474 14.0943398 -11.3247015 0 0 0 0 0 0 0 0 0 0 0 0 -34.4412655 -11.6462308 11.2571041 -28.9200335 -9.77348369 -1.81904872 -5.17882333 -11.952686 -30.2291146 23.0678091 -14.0602487 -50.714563 0 0 0 0 0 0 0 0 0 0 0 0 0 0 0 0 0 0 0 0 0 0 0 0 0 0 0 0 0 0 0 0 0 0 0 0 0 0 0 0 0 0 0 0 0 0 0 0 0 0 0 0 0 0 0 0 0 0 0 0 0 0 0 0 0 0 
-208.923837 86.6538643 47.4969487 -17.6687537 -4.23401569 12.3208411 -2.90235261 -7.00947324 8.22523001 -7.36337731 -6.11241671 3.76792427 -13.735115 -5.40510966 -2.58175489 8.71880539 14.1238019 -11.3278027 0 0 0 0 0 0 0 0 0 0 0 0 -34.4561406 -11.6662162 11.2205261 -28.9260225 -9.81229806 -1.84324442 -5.18175757 -11.9934507 -30.2515734 23.0531921 -14.0816945 -50.7514696 0 0 0 0 0 0 0 0 0 0 0 0 0 0 0 0 0 0 0 0 0 0 0 0 0 0 0 0 0 0 0 0 0 0 0 0 0 0 0 0 0 0 0 0 0 0 0 0 0 0 0 0 0 0 0 0 0 0 0 0 0 0 0 0 0 0 
-208.947026 86.469418 47.509285 -17.757268 -4.22366162 12.3338714 -2.87001911 -6.96188967 8.18124285 -7.33339747 -6.06610811 3.72272663 -13.7035631 -5.36784762 -2.632399 8.76940375 14.1519932 -11.3257729 0 0 0 0 0 0 0 0 0 0 0 0 -34.464882 -11.6845665 11.179585 -28.9256432 -9.85019554 -1.87158389 -5.17748327 -12.0337694 -30.2771789 23.0457955 -14.10544 -50.7911399 0 0 0 0 0 0 0 0 0 0 0 0 0 0 0 0 0 0 0 0 0 0 0 0 0 0 0 0 0 0 0 0 0 0 0 0 0 0 0 0 0 0 0 0 0 0 0 0 0 0 0 0 0 0 0 0 0 0 0 0 0 0 0 0 0 0 
-208.967432 86.2988928 47.5353474 -17.8414876 -4.21650005 12.3511025 -2.83532908 -6.9170253 8.14233852 -7.30129885 -6.02146392 3.68310066 -13.6703253 -5.33072068 -2.67713853 8.81809325 14.1782958 -11.3188698 0 0 0 0 0 0 0 0 0 0 0 0 -34.4688447 -11.7016222 11.1389648 -28.9208446 -9.88558307 -1.89989397 -5.16865788 -12.0716601 -30.3022856 23.0433764 -14.1298675 -50.8295354 0 0 0 0 0 0 0 0 0 0 0 0 0 0 0 0 0 0 0 0 0 0 0 0 0 0 0 0 0 0 0 0 0 0 0 0 0 0 0 0 0 0 0 0 0 0 0 0 0 0 0 0 0 0 0 0 0 0 0 0 0 0 0 0 0 0 
-208.986438 86.1409248 47.5759253 -17.922338 -4.21314814 12.3736356 -2.79891981 -6.87547158 8.10940691 -7.26769867 -5.97905953 3.64991795 -13.6360392 -5.29414716 -2.71506887 8.86439286 14.2024682 -11.3071839 0 0 0 0 0 0 0 0 0 0 0 0 -34.4683681 -11.717012 11.0994793 -28.9121032 -9.91784836 -1.92767222 -5.15579796 -12.1064661 -30.3265671 23.0457166 -14.1542844 -50.8661722 0 0 0 0 0 0 0 0 0 0 0 0 0 0 0 0 0 0 0 0 0 0 0 0 0 0 0 0 0 0 0 0 0 0 0 0 0 0 0 0 0 0 0 0 0 0 0 0 0 0 0 0 0 0 0 0 0 0 0 0 0 0 0 0 0 0 
-209.005576 85.9942099 47.6313211 -18.0004884 -4.21142571 12.4015356 -2.76166759 -6.83480266 8.08225291 -7.23371914 -5.93667969 3.62257598 -13.6018235 -5.25622594 -2.74741158 8.90768239 14.2244631 -11.290834 0 0 0 0 0 0 0 0 0 0 0 0 -34.4634173 -11.7297725 11.0589294 -28.8991455 -9.9472213 -1.95733355 -5.13813451 -12.1386407 -30.3524203 23.053838 -14.178518 -50.9035037 0 0 0 0 0 0 0 0 0 0 0 0 0 0 0 0 0 0 0 0 0 0 0 0 0 0 0 0 0 0 0 0 0 0 0 0 0 0 0 0 0 0 0 0 0 0 0 0 0 0 0 0 0 0 0 0 0 0 0 0 0 0 0 0 0 0 
-209.026 85.8560038 47.6922981 -18.0766183 -4.21053947 12.4354037 -2.72416937 -6.79446654 8.06137081 -7.20007625 -5.89381189 3.60147097 -13.5684618 -5.21642206 -2.77392172 8.94873617 14.2446143 -11.27019 0 0 0 0 0 0 0 0 0 0 0 0 -34.4557037 -11.7393026 11.0176593 -28.8837105 -9.97345651 -1.98898558 -5.11727348 -12.1679122 -30.3802092 23.0665697 -14.2013879 -50.9416908 0 0 0 0 0 0 0 0 0 0 0 0 0 0 0 0 0 0 0 0 0 0 0 0 0 0 0 0 0 0 0 0 0 0 0 0 0 0 0 0 0 0 0 0 0 0 0 0 0 0 0 0 0 0 0 0 0 0 0 0 0 0 0 0 0 0 
